#!OML:ASF F:\VICON\USERDATA\INSTALL\rory3\rory3.ASF
:FULLY-SPECIFIED
:DEGREES
113
root -0.41810898850007283 18.115748108000325 39.3307132140488 3.2898246324449376 2.3334322681908812 0.3816433153831652
lfemur -44.05620709635661 2.0965860016912776 -18.70300332614339
ltibia 43.118505402577924
lfoot 5.393990021191099 -6.286374832296788
ltoes -14.556325117551953
rfemur -15.81749535842183 -8.377506582102773 19.543613453815734
rtibia 47.08444000927394
rfoot 31.969839393229602 -3.679647992961498
rtoes 15.197663852966894
lowerback 1.0 1.2415940348091685 4.894828398228164
upperback -1.73178734539291 1.489692467469657 0.0095289407556568
thorax -7.265161086157525 0.15721079190497733 0.16418501303414673
lowerneck -17.362855202847516 -6.321339217552656 -1.6846779168689827
upperneck 15.46595789708563 -9.54866178623087 3.579688520196337
head 8.324526057137279 -3.9474883070073754 0.37072183688225613
lclavicle -3.7497355739886345e-14 -1.5915618897306743e-16
lhumerus -63.65783667689939 1.57688825815388 83.20766641695545
lradius 85.00059632469333
lwrist 34.87288038723309
lhand -28.58926264639538 -2.3935214444503092
lfingers nan
lthumb -1.536448500532523 29.44997165906317
rclavicle -3.1065275070257706e-14 3.520120008527948e-15
rhumerus -29.078040986655 21.39842596914742 -93.9571291471686
rradius 128.18142010666375
rwrist -22.846405912054404
rhand -23.127092332639613 1.0
rfingers nan
rthumb 3.915967777074272 7.285604972007354
114
root -0.4181321932743042 18.138123133134112 39.37780602031725 3.402177882137725 2.3540554683175845 0.14072612647966573
lfemur -43.49849968430779 1.9594652755050028 -18.787857246172493
ltibia 37.91704140083007
lfoot 8.733039536331383 -8.818133613847074
ltoes -5.5495074475269535
rfemur -17.090547990563884 -7.955490970929423 19.929172311109852
rtibia 48.45544584918629
rfoot 32.29172449571908 -3.757974424988623
rtoes 18.005426440318182
lowerback 1.0 1.2328427893179155 4.771679470708464
upperback -1.9790852171464957 1.4928119034351017 -0.005146957690180365
thorax -7.502674127520024 0.150958222941994 0.1709955695270086
lowerneck -17.086219045346144 -6.29660790524188 -1.733180063893845
upperneck 15.818616992899653 -9.503509984761996 3.6043838504816623
head 8.414985229041683 -3.8912199889489907 0.40105206784267505
lclavicle -1.2443435781987603e-15 1.2498087723721548e-14
lhumerus -63.809651019467054 1.866794684142934 83.04806840422788
lradius 86.2704304449414
lwrist 35.08322149424112
lhand -27.344427762588378 -4.912756856547809
lfingers nan
lthumb -0.2213533724928456 27.20122006722393
rclavicle 5.572992967107483e-15 1.6467734209298826e-14
rhumerus -30.611867230335523 22.725918045981643 -95.27241945469267
rradius 127.90730882351417
rwrist -10.120321102426685
rhand -29.291516942395166 1.0
rfingers nan
rthumb -2.014653539847262 1.4871229280587936
115
root -0.4246913695935557 18.155892267692312 39.42773276852151 3.4060284507337335 2.185675583890796 -0.3134742502589036
lfemur -42.713759538733015 2.2031878449484386 -18.737764942755497
ltibia 32.85308383521365
lfoot 11.085458001390657 -10.526533996967853
ltoes 1.581287203660974
rfemur -18.255049834705197 -7.39029700615221 20.512578642674864
rtibia 50.45212903644595
rfoot 31.929966070305525 -4.059888103884189
rtoes 18.448652832376716
lowerback 1.0 1.2688092391688133 4.738020485075878
upperback -2.1095524585205445 1.5940521933567522 0.0627832668244428
thorax -7.641244465757612 0.17611712460348378 0.15963184216543813
lowerneck -17.34539489053735 -6.286203620256208 -1.5779501372275944
upperneck 16.397873794230797 -9.468402973494657 3.387561394136068
head 8.590746579454422 -3.860741681034034 0.34211543340371947
lclavicle 2.080870132832016e-14 9.648942131198167e-15
lhumerus -63.77959687377712 2.017927515821337 82.99691723529455
lradius 87.59060518743632
lwrist 35.39999904549031
lhand -26.398984888241586 -5.766105134707049
lfingers nan
lthumb 0.6798837651184448 26.370178775138143
rclavicle 2.8356283218924065e-14 1.413230725732241e-14
rhumerus -31.643526373840352 23.343142795412714 -96.02058191802267
rradius 127.69889375514921
rwrist -5.864516197073661
rhand -20.670738875133715 1.0
rfingers nan
rthumb 6.007411182704975 14.835561847783083
116
root -0.43057038730555386 18.165793088543797 39.50341315091703 3.379410402957599 1.94740590790791 -0.479400506108301
lfemur -41.91372854599723 2.5172499027412787 -19.03191308331318
ltibia 28.0003944633328
lfoot 13.080345608933417 -11.595740644409055
ltoes 4.8199827236211
rfemur -19.320268984313785 -6.93130607975179 20.712480411179758
rtibia 52.93489182682034
rfoot 31.213089847570807 -4.364137123019072
rtoes 16.590607390892824
lowerback 1.0 1.3080878932545223 4.453672763106071
upperback -2.1015857965017415 1.6686095045378722 0.06541687206554292
thorax -7.578201072196679 0.19646680742593092 0.2517562779717316
lowerneck -18.124832665441254 -6.241695575468919 -1.4390690117301062
upperneck 16.804522498334894 -9.400749238190244 3.201079049410935
head 8.746765663192415 -3.7963352259858825 0.29691270665460145
lclavicle 1.0489877645382241e-14 -5.048966322557752e-15
lhumerus -63.69444051141764 2.200804758242758 83.0321076755471
lradius 89.08822990492355
lwrist 35.41169146053806
lhand -26.17242241912153 -6.080261496555336
lfingers nan
lthumb 0.9133864367254736 26.1907260574841
rclavicle 1.7790439832354066e-14 -6.848782503895327e-16
rhumerus -32.22455166246707 23.20936320988246 -96.10096945670657
rradius 127.45921891143146
rwrist -10.245570274037252
rhand -19.719944257395294 1.0
rfingers nan
rthumb 6.967221532357663 15.733266222607828
117
root -0.44168810748873105 18.15839754591659 39.6744369638827 3.2926271886709184 1.6739236685067804 -0.8739644367850019
lfemur -41.0556968664457 2.994582675063281 -19.19946045144023
ltibia 23.660445525961954
lfoot 14.277938665883363 -12.620484247686491
ltoes 3.39875625405398
rfemur -20.377716318923195 -6.527854036306058 21.104311284887025
rtibia 55.79989752091453
rfoot 30.003354876783888 -5.2963634584250485
rtoes 13.78058652470855
lowerback 1.0 1.339466798883538 4.376831883784044
upperback -2.047838495610673 1.7822782735630014 0.15969647201083348
thorax -7.5653380848931615 0.22180864367056097 0.30454907060440783
lowerneck -18.858392468678403 -6.1819784350588565 -1.4193813597759974
upperneck 16.915545956225966 -9.267464649477045 3.1173872409109338
head 8.805247222016064 -3.7062668745562664 0.3027124710345387
lclavicle -8.716377021368784e-15 1.610230707449914e-14
lhumerus -63.62665942536249 2.3534941051850646 83.14415467803477
lradius 90.57913019520524
lwrist 35.38361607983792
lhand -25.603431351682918 -6.466866558786339
lfingers nan
lthumb 1.4853203515527142 25.652988965939166
rclavicle -1.1274068231886664e-15 2.0180327476681925e-14
rhumerus -32.08624029845363 22.249475436761244 -95.4068243198943
rradius 127.12896777669407
rwrist -21.94098314590115
rhand -15.36924100403773 1.0
rfingers nan
rthumb 11.139438631566868 17.754214067297347
118
root -0.4494507893718248 18.138179756469434 39.87621144140398 3.2026756133788643 1.5401285972294199 -1.3598320181917123
lfemur -40.10657545658331 3.623602394198322 -19.383006329359375
ltibia 20.09180507934967
lfoot 14.737955971925224 -13.460695529696387
ltoes 0.736204140580595
rfemur -21.37186088669309 -6.404618599718864 21.629420619855537
rtibia 58.95761570440473
rfoot 28.72171101721055 -7.073781901150636
rtoes 11.503445612975042
lowerback 1.0 1.3276168935725785 4.584267064041001
upperback -2.0621590618781807 1.8643135817400875 0.25665358416446715
thorax -7.689150369485959 0.22655654974721517 0.23088285150485854
lowerneck -18.723347357720222 -6.1418496700726815 -1.3102316937672867
upperneck 16.70627242003677 -9.140039862347262 3.0209440601611792
head 8.674728219839345 -3.626345593620403 0.30401285870270534
lclavicle -5.731810599460573e-14 -1.919061325774073e-14
lhumerus -63.54450027872167 2.3266802484122957 83.31468649315278
lradius 91.76815683040232
lwrist 35.55122261165039
lhand -24.293057328117563 -9.05394250650629
lfingers nan
lthumb 2.8378635785871884 22.954980685154737
rclavicle -4.902530256359275e-14 -1.5002081599937446e-14
rhumerus -32.8954043784575 22.19636633359028 -95.96344887379816
rradius 126.20493580784319
rwrist -21.243885469154833
rhand -16.06635464919104 1.0
rfingers nan
rthumb 10.377577686714702 16.259133871967293
119
root -0.45654859607181625 18.116038661809753 40.10575927303074 3.13467805550055 1.5935503292663478 -1.6613810196569998
lfemur -39.47185396100045 4.216397058360362 -19.710724512659937
ltibia 17.433232703373783
lfoot 15.799876224814785 -13.387941068897273
ltoes 1.219653077147285
rfemur -22.436854684975124 -6.568323263695925 22.032285950435988
rtibia 62.357399527125104
rfoot 28.056063915096058 -9.483121683462967
rtoes 12.087151608020825
lowerback 1.0 1.2320766178279396 4.72586765756922
upperback -1.9915097018420145 1.8130116090489232 0.3737507698211282
thorax -7.668856065304021 0.18228053080558138 0.2668543869806569
lowerneck -18.180819717741223 -6.073696223273038 -1.190858670597386
upperneck 16.052162731853823 -8.96338057761689 2.9391952437928013
head 8.373880168005606 -3.5412326379757677 0.3091840731003831
lclavicle -1.761896140600883e-14 -1.3889030634086655e-14
lhumerus -63.285211751447775 2.356079379839053 83.56008798829068
lradius 92.79803010894231
lwrist 35.71873821529338
lhand -22.898868872567355 -10.377826596980151
lfingers nan
lthumb 4.121068792043205 21.220939362410718
rclavicle -9.64254016003962e-15 -9.432288475598065e-15
rhumerus -33.72160222525548 22.052765321445143 -96.42515039235252
rradius 125.23548079115284
rwrist -20.915747303620066
rhand -16.548308556031387 1.0
rfingers nan
rthumb 9.851496930834518 14.250078120555273
